<svg height="512pt" viewBox="0 -27 512 512" width="512pt" xmlns="http://www.w3.org/2000/svg"><path d="m326 162.441406c2.628906 0 5.210938-1.070312 7.070312-2.929687 1.859376-1.863281 2.929688-4.441407 2.929688-7.070313 0-2.632812-1.070312-5.210937-2.929688-7.070312-1.859374-1.859375-4.441406-2.929688-7.070312-2.929688s-5.210938 1.070313-7.070312 2.929688c-1.859376 1.859375-2.929688 4.4375-2.929688 7.070312 0 2.628906 1.070312 5.207032 2.929688 7.070313 1.859374 1.859375 4.441406 2.929687 7.070312 2.929687zm0 0"/><path d="m511.902344 186.371094-24.925782-177.761719c-.691406-4.9375-4.917968-8.609375-9.902343-8.609375h-55.261719c-5.523438 0-10 4.476562-10 10v132.4375h-45.8125c-5.523438 0-10 4.476562-10 10s4.476562 10 10 10h55.8125c5.523438 0 10-4.476562 10-10v-132.4375h36.566406l23.621094 168.457031v210.441407l-39.101562 39.101562h-99.984376l54.480469-54.480469c6.035157-6.035156 9.359375-14.058593 9.359375-22.59375 0-8.535156-3.324218-16.558593-9.359375-22.59375l-98.226562-98.226562c-8.152344-8.152344-19.773438-11.707031-31.09375-9.503907l-10.566407 2.050782c-4.78125.929687-9.691406-.570313-13.136718-4.011719l-3.988282-3.992187c.089844-4.640626-1.617187-9.3125-5.152343-12.847657l-15.519531-15.519531c-3.34375-3.339844-7.78125-5.179688-12.507813-5.179688-4.722656 0-9.164063 1.839844-12.5 5.179688l-34.878906 34.875c.011719-.382812.03125-.765625.03125-1.15625v-44c0-10.214844-4.285157-19.441406-11.140625-26 6.855468-6.558594 11.140625-15.785156 11.140625-26 0-23.082031-8.972657-44.804688-25.261719-61.160156l-9.683594-9.71875c3.035156-1.363282 5.328125-4.195313 5.824219-7.730469l4.960937-35.390625h36.515626v132.4375c0 5.523438 4.476562 10 10 10h93.789062c5.523438 0 10-4.476562 10-10s-4.476562-10-10-10h-83.789062v-132.4375c0-5.523438-4.480469-10-10-10h-55.210938c-4.984375 0-9.210938 3.671875-9.902344 8.609375l-.492187 3.5c-1.4375-6.90625-7.566407-12.109375-14.890625-12.109375h-53.574219c-8.390625 0-15.214844 6.824219-15.214844 15.214844v33.570312c0 1.878906.359375 3.667969.984375 5.332032l-18.648437 18.722656c-16.289063 16.355468-25.261719 38.074218-25.261719 61.160156 0 10.214844 4.28125 19.441406 11.140625 26-6.859375 6.558594-11.140625 15.785156-11.140625 26v44c0 10.214844 4.28125 19.441406 11.140625 26-6.859375 6.558594-11.140625 15.785156-11.140625 26v44c0 10.214844 4.28125 19.441406 11.140625 26-6.859375 6.558594-11.140625 15.785156-11.140625 26v44c0 19.851562 16.148438 36 36 36h97.855469c5.550781 0 10.8125-1.265625 15.511719-3.519531l.59375.589843c1.875 1.875 4.417968 2.929688 7.070312 2.929688h300.011719c2.652343 0 5.195312-1.054688 7.070312-2.929688l44.957031-44.957031c1.875-1.875 2.929688-4.417969 2.929688-7.070312v-215.285157c0-.464843-.03125-.929687-.097656-1.386718zm-240.578125 65.914062 10.566406-2.050781c4.785156-.929687 9.691406.570313 13.136719 4.015625l98.226562 98.226562c4.660156 4.660157 4.660156 12.242188 0 16.898438l-65.125 65.125c-4.660156 4.660156-12.242187 4.660156-16.902344 0l-98.222656-98.226562c-3.445312-3.445313-4.945312-8.351563-4.019531-13.136719l2.054687-10.566407c2.199219-11.316406-1.351562-22.941406-9.507812-31.09375l-.484375-.488281 38.695313-38.695312.488281.488281c8.152343 8.152344 19.777343 11.707031 31.09375 9.503906zm-54.121094-40.222656 12.246094 12.242188-46.390625 46.390624-12.246094-12.242187zm-34.144531 79.59375c.117187 0 .234375-.015625.351562-.015625l3.980469 3.976563c3.445313 3.445312 4.945313 8.355468 4.015625 13.136718l-2.050781 10.566406c-2.199219 11.320313 1.351562 22.941407 9.503906 31.097657l87.585937 87.582031h-120.355468c2.402344-4.824219 3.765625-10.253906 3.765625-16v-44c0-10.214844-4.285157-19.441406-11.140625-26 6.855468-6.558594 11.140625-15.785156 11.140625-26v-40.222656l.699219.699218c3.339843 3.339844 7.78125 5.179688 12.503906 5.179688zm-120.132813-271.65625h44v24h-44zm-42.925781 114c0-17.757812 6.902344-34.464844 19.433594-47.046875l22.859375-22.953125h45.265625l22.863281 22.953125c12.53125 12.582031 19.433594 29.289063 19.433594 47.046875 0 8.820312-7.179688 16-16 16h-97.855469c-8.820312 0-16-7.179688-16-16zm0 96v-44c0-8.820312 7.179688-16 16-16h97.855469c8.820312 0 16 7.179688 16 16v44c0 8.820312-7.179688 16-16 16h-97.855469c-8.820312 0-16-7.179688-16-16zm0 96v-44c0-8.820312 7.179688-16 16-16h97.855469c8.820312 0 16 7.179688 16 16v44c0 8.820312-7.179688 16-16 16h-97.855469c-8.820312 0-16-7.179688-16-16zm16 112c-8.820312 0-16-7.179688-16-16v-44c0-8.820312 7.179688-16 16-16h97.855469c8.820312 0 16 7.179688 16 16v44c0 8.820312-7.179688 16-16 16zm0 0"/><path d="m472 298.074219v-84.742188c0-5.523437-4.476562-10-10-10s-10 4.476563-10 10v84.742188c0 5.523437 4.476562 10 10 10s10-4.476563 10-10zm0 0"/><path d="m454.929688 345.148438c1.859374 1.859374 4.441406 2.929687 7.070312 2.929687s5.210938-1.066406 7.070312-2.929687c1.859376-1.867188 2.929688-4.4375 2.929688-7.070313 0-2.640625-1.070312-5.207031-2.929688-7.078125-1.859374-1.859375-4.441406-2.921875-7.070312-2.921875s-5.210938 1.0625-7.070312 2.921875c-1.859376 1.871094-2.929688 4.4375-2.929688 7.078125 0 2.632813 1.070312 5.203125 2.929688 7.070313zm0 0"/></svg>